<svg xmlns="http://www.w3.org/2000/svg" width="220" height="220" viewBox="0 0 220 220">
<rect x="0" y="0" width="220" height="220" fill="#10131a"/>
<rect x="17.2" y="24.4" width="32.5" height="1.9" fill="#444a55"/>
<rect x="78.4" y="24.4" width="32.5" height="1.9" fill="#444a55"/>
<rect x="109" y="24.4" width="32.5" height="1.9" fill="#444a55"/>
<rect x="139.7" y="24.4" width="32.5" height="1.9" fill="#444a55"/>
<rect x="170.3" y="24.4" width="32.5" height="1.9" fill="#444a55"/>
<rect x="47.8" y="55" width="32.5" height="1.9" fill="#444a55"/>
<rect x="109" y="55" width="32.5" height="1.9" fill="#444a55"/>
<rect x="109" y="85.6" width="32.5" height="1.9" fill="#444a55"/>
<rect x="139.7" y="85.6" width="32.5" height="1.9" fill="#444a55"/>
<rect x="139.7" y="116.2" width="32.5" height="1.9" fill="#444a55"/>
<rect x="170.3" y="116.2" width="32.5" height="1.9" fill="#444a55"/>
<rect x="17.2" y="146.8" width="32.5" height="1.9" fill="#444a55"/>
<rect x="78.4" y="146.8" width="32.5" height="1.9" fill="#444a55"/>
<rect x="47.8" y="177.5" width="32.5" height="1.9" fill="#444a55"/>
<rect x="109" y="177.5" width="32.5" height="1.9" fill="#444a55"/>
<rect x="139.7" y="177.5" width="32.5" height="1.9" fill="#444a55"/>
<rect x="17.2" y="208.1" width="32.5" height="1.9" fill="#444a55"/>
<rect x="47.8" y="208.1" width="32.5" height="1.9" fill="#444a55"/>
<rect x="78.4" y="208.1" width="32.5" height="1.9" fill="#444a55"/>
<rect x="109" y="208.1" width="32.5" height="1.9" fill="#444a55"/>
<rect x="139.7" y="208.1" width="32.5" height="1.9" fill="#444a55"/>
<rect x="170.3" y="208.1" width="32.5" height="1.9" fill="#444a55"/>
<rect x="17.2" y="24.4" width="1.9" height="32.5" fill="#444a55"/>
<rect x="200.9" y="24.4" width="1.9" height="32.5" fill="#444a55"/>
<rect x="17.2" y="55" width="1.9" height="32.5" fill="#444a55"/>
<rect x="78.4" y="55" width="1.9" height="32.5" fill="#444a55"/>
<rect x="109" y="55" width="1.9" height="32.5" fill="#444a55"/>
<rect x="200.9" y="55" width="1.9" height="32.5" fill="#444a55"/>
<rect x="17.2" y="85.6" width="1.9" height="32.5" fill="#444a55"/>
<rect x="47.8" y="85.6" width="1.9" height="32.5" fill="#444a55"/>
<rect x="78.4" y="85.6" width="1.9" height="32.5" fill="#444a55"/>
<rect x="109" y="85.6" width="1.9" height="32.5" fill="#444a55"/>
<rect x="200.9" y="85.6" width="1.9" height="32.5" fill="#444a55"/>
<rect x="17.2" y="116.2" width="1.9" height="32.5" fill="#444a55"/>
<rect x="47.8" y="116.2" width="1.9" height="32.5" fill="#444a55"/>
<rect x="78.4" y="116.2" width="1.9" height="32.5" fill="#444a55"/>
<rect x="109" y="116.2" width="1.9" height="32.5" fill="#444a55"/>
<rect x="139.7" y="116.2" width="1.9" height="32.5" fill="#444a55"/>
<rect x="200.9" y="116.2" width="1.9" height="32.5" fill="#444a55"/>
<rect x="17.2" y="146.8" width="1.9" height="32.5" fill="#444a55"/>
<rect x="78.4" y="146.8" width="1.9" height="32.5" fill="#444a55"/>
<rect x="139.7" y="146.8" width="1.9" height="32.5" fill="#444a55"/>
<rect x="200.9" y="146.8" width="1.9" height="32.5" fill="#444a55"/>
<rect x="17.2" y="177.5" width="1.9" height="32.5" fill="#444a55"/>
<rect x="200.9" y="177.5" width="1.9" height="32.5" fill="#444a55"/>
<polyline points="94.7,193.7 64.1,193.7 33.4,193.7 33.4,163.1 64.1,163.1 64.1,132.5 64.1,101.9 64.1,71.2 33.4,71.2 33.4,40.6 64.1,40.6 64.1,10" fill="none" stroke="#2e6b4f" stroke-width="1" stroke-opacity="0.75"/>
<polyline points="94.7,193.7 79.4,193.6 61.3,193.9 39.7,194 31.9,174.3 52.7,164.1 64.2,140.4 64.6,98.5 41,71.5 50.4,39.9 64.1,10" fill="none" stroke="#ffaa44" stroke-width="1.5" stroke-opacity="0.9"/>
<circle cx="94.7" cy="193.7" r="5" fill="#44ff77"/>
<circle cx="64.1" cy="10" r="5" fill="#ff4444"/>
</svg>
